<?xml version="1.0" encoding="iso-8859-1"?>
<!-- Generator: Adobe Illustrator 17.1.0, SVG Export Plug-In . SVG Version: 6.00 Build 0)  -->
<!DOCTYPE svg PUBLIC "-//W3C//DTD SVG 1.1//EN" "http://www.w3.org/Graphics/SVG/1.1/DTD/svg11.dtd">
<svg version="1.1" id="Capa_1" xmlns="http://www.w3.org/2000/svg" xmlns:xlink="http://www.w3.org/1999/xlink" x="0px" y="0px"
	 viewBox="0 0 200.947 200.947" style="enable-background:new 0 0 200.947 200.947;" xml:space="preserve">
<path d="M144.957,45.186h29.681c6.065,0,11-4.935,11-11V11c0-6.065-4.935-11-11-11h-29.681H26.309c-6.065,0-11,4.935-11,11v23.186
	c0,6.065,4.935,11,11,11h63.257v5.481H26.309c-6.065,0-11,4.935-11,11v23.186c0,6.065,4.935,11,11,11h63.257v5.48H26.309
	c-6.065,0-11,4.935-11,11v23.186c0,6.065,4.935,11,11,11h63.257v11.759c-4.571,1.884-8.375,5.252-10.816,9.502H20.403
	c-2.761,0-5,2.238-5,5v12c0,2.762,2.239,5,5,5H78.75c3.827,6.665,11.012,11.167,19.233,11.167c8.221,0,15.406-4.502,19.232-11.167
	h63.423c2.761,0,5-2.238,5-5v-12c0-2.762-2.239-5-5-5h-63.423c-2.321-4.042-5.875-7.284-10.149-9.212v-12.049h37.891h29.681
	c6.065,0,11-4.935,11-11v-23.186c0-6.065-4.935-11-11-11h-29.681h-37.891v-5.48h37.891h29.681c6.065,0,11-4.935,11-11V61.667
	c0-6.065-4.935-11-11-11h-29.681h-37.891v-5.481H144.957z M175.638,11v23.186c0,0.552-0.449,1-1,1h-24.681V10h24.681
	C175.189,10,175.638,10.448,175.638,11z M175.638,112.333v23.186c0,0.552-0.449,1-1,1h-24.681v-25.186h24.681
	C175.189,111.333,175.638,111.781,175.638,112.333z M175.638,61.667v23.186c0,0.552-0.449,1-1,1h-24.681V60.667h24.681
	C175.189,60.667,175.638,61.115,175.638,61.667z"/>
<g>
</g>
<g>
</g>
<g>
</g>
<g>
</g>
<g>
</g>
<g>
</g>
<g>
</g>
<g>
</g>
<g>
</g>
<g>
</g>
<g>
</g>
<g>
</g>
<g>
</g>
<g>
</g>
<g>
</g>
</svg>
